<?xml version="1.0" encoding="UTF-8" standalone="no"?>
<!DOCTYPE svg PUBLIC "-//W3C//DTD SVG 1.1//EN"
 "http://www.w3.org/Graphics/SVG/1.1/DTD/svg11.dtd">
<!-- Generated by graphviz version 2.40.1 (20161225.0304)
 -->
<!-- Title: G Pages: 1 -->
<svg width="630pt" height="480pt"
 viewBox="0.00 0.00 629.50 480.00" xmlns="http://www.w3.org/2000/svg" xmlns:xlink="http://www.w3.org/1999/xlink">
<g id="graph0" class="graph" transform="scale(1 1) rotate(0) translate(4 476)">
<title>G</title>
<polygon fill="#ffffff" stroke="transparent" points="-4,4 -4,-476 625.5,-476 625.5,4 -4,4"/>
<!-- GitOKR -->
<g id="node1" class="node">
<title>GitOKR</title>
<polygon fill="#ffa500" stroke="transparent" points="280,-448 280,-468 530,-468 530,-448 280,-448"/>
<polygon fill="none" stroke="#000000" points="280,-448 280,-468 530,-468 530,-448 280,-448"/>
<text text-anchor="start" x="357.7534" y="-454.8" font-family="Times,serif" font-weight="bold" font-size="14.00" fill="#000000">Project: GitOKR</text>
<polygon fill="none" stroke="#000000" points="280,-428 280,-448 530,-448 530,-428 280,-428"/>
<text text-anchor="start" x="282.6982" y="-433.8" font-family="Times,serif" font-size="14.00" fill="#000000">Simple tool to manage OKRs using Github.</text>
</g>
<!-- GitOKRProduct -->
<g id="node2" class="node">
<title>GitOKRProduct</title>
<polygon fill="#ffa500" stroke="transparent" points="8,-364 8,-384 514,-384 514,-364 8,-364"/>
<polygon fill="none" stroke="#000000" points="8,-364 8,-384 514,-384 514,-364 8,-364"/>
<text text-anchor="start" x="215.7017" y="-370.8" font-family="Times,serif" font-weight="bold" font-size="14.00" fill="#000000">Project: Product</text>
<polygon fill="none" stroke="#000000" points="8,-358 8,-364 514,-364 514,-358 8,-358"/>
<polygon fill="none" stroke="#000000" points="8,-338 8,-358 514,-358 514,-338 8,-338"/>
<text text-anchor="start" x="252.4448" y="-343.8" font-family="Times,serif" font-size="14.00" fill="#000000">Q4</text>
<polygon fill="none" stroke="#000000" points="8,-318 8,-338 85,-338 85,-318 8,-318"/>
<text text-anchor="start" x="17.3447" y="-323.8" font-family="Times,serif" font-size="14.00" fill="#000000">Objective:</text>
<polygon fill="none" stroke="#000000" points="85,-318 85,-338 514,-338 514,-318 85,-318"/>
<text text-anchor="start" x="87.8149" y="-323.8" font-family="Times,serif" font-size="14.00" fill="#000000">Make it simple to use and have certain critical things that are part of OKRs.</text>
<polygon fill="none" stroke="#000000" points="8,-252 8,-318 85,-318 85,-252 8,-252"/>
<text text-anchor="start" x="10.5293" y="-280.8" font-family="Times,serif" font-size="14.00" fill="#000000">Key Results:</text>
<polygon fill="none" stroke="#000000" points="85,-252 85,-318 514,-318 514,-252 85,-252"/>
<polygon fill="none" stroke="#00ff00" points="88,-295 88,-315 511,-315 511,-295 88,-295"/>
<text text-anchor="start" x="91" y="-300.8" font-family="Times,serif" font-size="14.00" fill="#000000">Has a mechanism to score OKRs.</text>
<polygon fill="none" stroke="#00ff00" points="88,-275 88,-295 511,-295 511,-275 88,-275"/>
<text text-anchor="start" x="91" y="-280.8" font-family="Times,serif" font-size="14.00" fill="#000000">Create Cron Tasks that are tasks that need to happen regularily.</text>
<polygon fill="none" stroke="#00ff00" points="88,-255 88,-275 511,-275 511,-255 88,-255"/>
<text text-anchor="start" x="91" y="-260.8" font-family="Times,serif" font-size="14.00" fill="#000000">Create Standard Operating Procedure Tasks. Merge GitSOP.</text>
</g>
<!-- GitOKR&#45;&gt;GitOKRProduct -->
<g id="edge1" class="edge">
<title>GitOKR&#45;&gt;GitOKRProduct</title>
<path fill="none" stroke="#000000" d="M378.2522,-423.8527C368.9113,-415.4199 357.8616,-405.4445 346.3396,-395.0427"/>
<polygon fill="#000000" stroke="#000000" points="348.4811,-392.2607 338.713,-388.1576 343.7904,-397.4566 348.4811,-392.2607"/>
</g>
<!-- Marketing -->
<g id="node3" class="node">
<title>Marketing</title>
<polygon fill="#ffa500" stroke="transparent" points="197,-188 197,-208 614,-208 614,-188 197,-188"/>
<polygon fill="none" stroke="#000000" points="197,-188 197,-208 614,-208 614,-188 197,-188"/>
<text text-anchor="start" x="352.8188" y="-194.8" font-family="Times,serif" font-weight="bold" font-size="14.00" fill="#000000">Project: Marketing</text>
<polygon fill="none" stroke="#000000" points="197,-182 197,-188 614,-188 614,-182 197,-182"/>
<polygon fill="none" stroke="#000000" points="197,-162 197,-182 614,-182 614,-162 197,-162"/>
<text text-anchor="start" x="396.9448" y="-167.8" font-family="Times,serif" font-size="14.00" fill="#000000">Q4</text>
<polygon fill="none" stroke="#000000" points="197,-142 197,-162 274,-162 274,-142 197,-142"/>
<text text-anchor="start" x="206.3447" y="-147.8" font-family="Times,serif" font-size="14.00" fill="#000000">Objective:</text>
<polygon fill="none" stroke="#000000" points="274,-142 274,-162 614,-162 614,-142 274,-142"/>
<text text-anchor="start" x="276.8237" y="-147.8" font-family="Times,serif" font-size="14.00" fill="#000000">Get people to use it and expand on the use cases of the tool.</text>
<polygon fill="none" stroke="#000000" points="197,-76 197,-142 274,-142 274,-76 197,-76"/>
<text text-anchor="start" x="199.5293" y="-104.8" font-family="Times,serif" font-size="14.00" fill="#000000">Key Results:</text>
<polygon fill="none" stroke="#000000" points="274,-76 274,-142 614,-142 614,-76 274,-76"/>
<polygon fill="none" stroke="#ff0000" points="277,-119 277,-139 611,-139 611,-119 277,-119"/>
<text text-anchor="start" x="280" y="-124.8" font-family="Times,serif" font-size="14.00" fill="#000000">Create examples directory</text>
<polygon fill="none" stroke="#ff0000" points="277,-99 277,-119 611,-119 611,-99 277,-99"/>
<text text-anchor="start" x="280" y="-104.8" font-family="Times,serif" font-size="14.00" fill="#000000">Get 100 Stars</text>
<polygon fill="none" stroke="#ff0000" points="277,-79 277,-99 611,-99 611,-79 277,-79"/>
<text text-anchor="start" x="280" y="-84.8" font-family="Times,serif" font-size="14.00" fill="#000000">Post it on 20 Sites</text>
</g>
<!-- GitOKR&#45;&gt;Marketing -->
<g id="edge3" class="edge">
<title>GitOKR&#45;&gt;Marketing</title>
<path fill="none" stroke="#000000" d="M489.3747,-423.9869C505.8716,-415.3358 521.1045,-403.6723 531,-388 564.2195,-335.3876 557.2604,-304.4092 531,-248 526.3815,-238.0792 520.3268,-228.7551 513.3687,-220.0712"/>
<polygon fill="#000000" stroke="#000000" points="515.8848,-217.6272 506.7398,-212.2773 510.5525,-222.1624 515.8848,-217.6272"/>
</g>
<!-- GitOKRProduct&#45;&gt;Marketing -->
<g id="edge2" class="edge">
<title>GitOKRProduct&#45;&gt;Marketing</title>
<path fill="none" stroke="#000000" stroke-dasharray="1,5" d="M318.3264,-247.9344C325.8632,-238.7228 333.624,-229.2374 341.2592,-219.9054"/>
<polygon fill="#000000" stroke="#000000" points="344.0121,-222.068 347.6356,-212.112 338.5943,-217.6353 344.0121,-222.068"/>
</g>
<!-- MarketingNewIssue -->
<g id="node4" class="node">
<title>MarketingNewIssue</title>
<g id="a_node4"><a xlink:href="https://github.com/abhiyerra/gitokr/issues/new?body=%23+Issue%3A+NAME%0A%0A%23%23+What+does+it+do%3F&amp;title=New+Issue" xlink:title="SOP: New Issue">
<ellipse fill="none" stroke="#0000ff" cx="405" cy="-18" rx="68.1633" ry="18"/>
<text text-anchor="middle" x="405" y="-13.8" font-family="Times,serif" font-size="14.00" fill="#000000">SOP: New Issue</text>
</a>
</g>
</g>
<!-- Marketing&#45;&gt;MarketingNewIssue -->
<g id="edge4" class="edge">
<title>Marketing&#45;&gt;MarketingNewIssue</title>
<path fill="none" stroke="#000000" stroke-dasharray="1,5" d="M405,-61.6627C405,-56.3617 405,-51.2572 405,-46.5245"/>
<polygon fill="#000000" stroke="#000000" points="401.5001,-61.667 405,-71.667 408.5001,-61.667 401.5001,-61.667"/>
<polygon fill="#000000" stroke="#000000" points="408.5001,-46.2383 405,-36.2383 401.5001,-46.2384 408.5001,-46.2383"/>
</g>
</g>
</svg>
