<?xml version="1.0" encoding="UTF-8" standalone="no"?>
<!DOCTYPE svg PUBLIC "-//W3C//DTD SVG 1.1//EN"
 "http://www.w3.org/Graphics/SVG/1.1/DTD/svg11.dtd">
<!-- Generated by graphviz version 2.40.1 (20161225.0304)
 -->
<!-- Title: G Pages: 1 -->
<svg width="982pt" height="232pt"
 viewBox="0.00 0.00 981.50 232.00" xmlns="http://www.w3.org/2000/svg" xmlns:xlink="http://www.w3.org/1999/xlink">
<g id="graph0" class="graph" transform="scale(1 1) rotate(0) translate(4 228)">
<title>G</title>
<polygon fill="#ffffff" stroke="transparent" points="-4,4 -4,-228 977.5,-228 977.5,4 -4,4"/>
<!-- GitOKR -->
<g id="node1" class="node">
<title>GitOKR</title>
<polygon fill="#ffa500" stroke="transparent" points="384,-200 384,-220 634,-220 634,-200 384,-200"/>
<polygon fill="none" stroke="#000000" points="384,-200 384,-220 634,-220 634,-200 384,-200"/>
<text text-anchor="start" x="461.7534" y="-206.8" font-family="Times,serif" font-weight="bold" font-size="14.00" fill="#000000">Project: GitOKR</text>
<polygon fill="none" stroke="#000000" points="384,-180 384,-200 634,-200 634,-180 384,-180"/>
<text text-anchor="start" x="386.6982" y="-185.8" font-family="Times,serif" font-size="14.00" fill="#000000">Simple tool to manage OKRs using Github.</text>
</g>
<!-- GitOKRProduct -->
<g id="node2" class="node">
<title>GitOKRProduct</title>
<polygon fill="#ffa500" stroke="transparent" points="8,-116 8,-136 514,-136 514,-116 8,-116"/>
<polygon fill="none" stroke="#000000" points="8,-116 8,-136 514,-136 514,-116 8,-116"/>
<text text-anchor="start" x="215.7017" y="-122.8" font-family="Times,serif" font-weight="bold" font-size="14.00" fill="#000000">Project: Product</text>
<polygon fill="none" stroke="#000000" points="8,-110 8,-116 514,-116 514,-110 8,-110"/>
<polygon fill="none" stroke="#000000" points="8,-90 8,-110 514,-110 514,-90 8,-90"/>
<text text-anchor="start" x="252.4448" y="-95.8" font-family="Times,serif" font-size="14.00" fill="#000000">Q4</text>
<polygon fill="none" stroke="#000000" points="8,-70 8,-90 85,-90 85,-70 8,-70"/>
<text text-anchor="start" x="17.3447" y="-75.8" font-family="Times,serif" font-size="14.00" fill="#000000">Objective:</text>
<polygon fill="none" stroke="#000000" points="85,-70 85,-90 514,-90 514,-70 85,-70"/>
<text text-anchor="start" x="87.8149" y="-75.8" font-family="Times,serif" font-size="14.00" fill="#000000">Make it simple to use and have certain critical things that are part of OKRs.</text>
<polygon fill="none" stroke="#000000" points="8,-4 8,-70 85,-70 85,-4 8,-4"/>
<text text-anchor="start" x="10.5293" y="-32.8" font-family="Times,serif" font-size="14.00" fill="#000000">Key Results:</text>
<polygon fill="none" stroke="#000000" points="85,-4 85,-70 514,-70 514,-4 85,-4"/>
<polygon fill="none" stroke="#ff0000" points="88,-47 88,-67 511,-67 511,-47 88,-47"/>
<text text-anchor="start" x="91" y="-52.8" font-family="Times,serif" font-size="14.00" fill="#000000">Has a mechanism to score OKRs.</text>
<polygon fill="none" stroke="#00ff00" points="88,-27 88,-47 511,-47 511,-27 88,-27"/>
<text text-anchor="start" x="91" y="-32.8" font-family="Times,serif" font-size="14.00" fill="#000000">Create Cron Tasks that are tasks that need to happen regularily.</text>
<polygon fill="none" stroke="#ff0000" points="88,-7 88,-27 511,-27 511,-7 88,-7"/>
<text text-anchor="start" x="91" y="-12.8" font-family="Times,serif" font-size="14.00" fill="#000000">Create Standard Operating Procedure Tasks. Merge GitSOP.</text>
</g>
<!-- GitOKR&#45;&gt;GitOKRProduct -->
<g id="edge1" class="edge">
<title>GitOKR&#45;&gt;GitOKRProduct</title>
<path fill="none" stroke="#000000" d="M462.9343,-175.8527C445.6366,-166.7853 424.9363,-155.9344 403.4809,-144.6876"/>
<polygon fill="#000000" stroke="#000000" points="405.0585,-141.5629 394.5766,-140.02 401.8086,-147.7627 405.0585,-141.5629"/>
</g>
<!-- GitOKRMarketing -->
<g id="node3" class="node">
<title>GitOKRMarketing</title>
<polygon fill="#ffa500" stroke="transparent" points="549,-116 549,-136 966,-136 966,-116 549,-116"/>
<polygon fill="none" stroke="#000000" points="549,-116 549,-136 966,-136 966,-116 549,-116"/>
<text text-anchor="start" x="704.8188" y="-122.8" font-family="Times,serif" font-weight="bold" font-size="14.00" fill="#000000">Project: Marketing</text>
<polygon fill="none" stroke="#000000" points="549,-110 549,-116 966,-116 966,-110 549,-110"/>
<polygon fill="none" stroke="#000000" points="549,-90 549,-110 966,-110 966,-90 549,-90"/>
<text text-anchor="start" x="748.9448" y="-95.8" font-family="Times,serif" font-size="14.00" fill="#000000">Q4</text>
<polygon fill="none" stroke="#000000" points="549,-70 549,-90 626,-90 626,-70 549,-70"/>
<text text-anchor="start" x="558.3447" y="-75.8" font-family="Times,serif" font-size="14.00" fill="#000000">Objective:</text>
<polygon fill="none" stroke="#000000" points="626,-70 626,-90 966,-90 966,-70 626,-70"/>
<text text-anchor="start" x="628.8237" y="-75.8" font-family="Times,serif" font-size="14.00" fill="#000000">Get people to use it and expand on the use cases of the tool.</text>
<polygon fill="none" stroke="#000000" points="549,-4 549,-70 626,-70 626,-4 549,-4"/>
<text text-anchor="start" x="551.5293" y="-32.8" font-family="Times,serif" font-size="14.00" fill="#000000">Key Results:</text>
<polygon fill="none" stroke="#000000" points="626,-4 626,-70 966,-70 966,-4 626,-4"/>
<polygon fill="none" stroke="#ff0000" points="629,-47 629,-67 963,-67 963,-47 629,-47"/>
<text text-anchor="start" x="632" y="-52.8" font-family="Times,serif" font-size="14.00" fill="#000000">Create examples directory</text>
<polygon fill="none" stroke="#ff0000" points="629,-27 629,-47 963,-47 963,-27 629,-27"/>
<text text-anchor="start" x="632" y="-32.8" font-family="Times,serif" font-size="14.00" fill="#000000">Get 100 Stars</text>
<polygon fill="none" stroke="#ff0000" points="629,-7 629,-27 963,-27 963,-7 629,-7"/>
<text text-anchor="start" x="632" y="-12.8" font-family="Times,serif" font-size="14.00" fill="#000000">Post it on 20 Sites</text>
</g>
<!-- GitOKR&#45;&gt;GitOKRMarketing -->
<g id="edge2" class="edge">
<title>GitOKR&#45;&gt;GitOKRMarketing</title>
<path fill="none" stroke="#000000" d="M555.0657,-175.8527C572.3634,-166.7853 593.0637,-155.9344 614.5191,-144.6876"/>
<polygon fill="#000000" stroke="#000000" points="616.1914,-147.7627 623.4234,-140.02 612.9415,-141.5629 616.1914,-147.7627"/>
</g>
</g>
</svg>
