<?xml version="1.0" encoding="UTF-8" standalone="no"?>
<!DOCTYPE svg PUBLIC "-//W3C//DTD SVG 1.1//EN"
 "http://www.w3.org/Graphics/SVG/1.1/DTD/svg11.dtd">
<!-- Generated by graphviz version 2.40.1 (20161225.0304)
 -->
<!-- Title: G Pages: 1 -->
<svg width="1726pt" height="232pt"
 viewBox="0.00 0.00 1726.00 232.00" xmlns="http://www.w3.org/2000/svg" xmlns:xlink="http://www.w3.org/1999/xlink">
<g id="graph0" class="graph" transform="scale(1 1) rotate(0) translate(4 228)">
<title>G</title>
<polygon fill="#ffffff" stroke="transparent" points="-4,4 -4,-228 1722,-228 1722,4 -4,4"/>
<!-- GitOKR -->
<g id="node1" class="node">
<title>GitOKR</title>
<polygon fill="#ffa500" stroke="transparent" points="709,-200 709,-220 1190,-220 1190,-200 709,-200"/>
<polygon fill="none" stroke="#000000" points="709,-200 709,-220 1190,-220 1190,-200 709,-200"/>
<text text-anchor="start" x="902.2534" y="-206.8" font-family="Times,serif" font-weight="bold" font-size="14.00" fill="#000000">Project: GitOKR</text>
<polygon fill="none" stroke="#000000" points="709,-180 709,-200 1190,-200 1190,-180 709,-180"/>
<text text-anchor="start" x="711.5923" y="-185.8" font-family="Times,serif" font-size="14.00" fill="#000000">Tool to manage and create tasks using Github for running and organizing companies.</text>
</g>
<!-- GitOKRGitOKR -->
<g id="node2" class="node">
<title>GitOKRGitOKR</title>
<polygon fill="#ffa500" stroke="transparent" points="8,-116 8,-136 514,-136 514,-116 8,-116"/>
<polygon fill="none" stroke="#000000" points="8,-116 8,-136 514,-136 514,-116 8,-116"/>
<text text-anchor="start" x="213.7534" y="-122.8" font-family="Times,serif" font-weight="bold" font-size="14.00" fill="#000000">Project: GitOKR</text>
<polygon fill="none" stroke="#000000" points="8,-110 8,-116 514,-116 514,-110 8,-110"/>
<polygon fill="none" stroke="#000000" points="8,-90 8,-110 514,-110 514,-90 8,-90"/>
<text text-anchor="start" x="252.4448" y="-95.8" font-family="Times,serif" font-size="14.00" fill="#000000">Q4</text>
<polygon fill="none" stroke="#000000" points="8,-70 8,-90 85,-90 85,-70 8,-70"/>
<text text-anchor="start" x="17.3447" y="-75.8" font-family="Times,serif" font-size="14.00" fill="#000000">Objective:</text>
<polygon fill="none" stroke="#000000" points="85,-70 85,-90 514,-90 514,-70 85,-70"/>
<text text-anchor="start" x="87.8149" y="-75.8" font-family="Times,serif" font-size="14.00" fill="#000000">Make it simple to use and have certain critical things that are part of OKRs.</text>
<polygon fill="none" stroke="#000000" points="8,-4 8,-70 85,-70 85,-4 8,-4"/>
<text text-anchor="start" x="10.5293" y="-32.8" font-family="Times,serif" font-size="14.00" fill="#000000">Key Results:</text>
<polygon fill="none" stroke="#000000" points="85,-4 85,-70 514,-70 514,-4 85,-4"/>
<polygon fill="none" stroke="#00ff00" points="88,-47 88,-67 511,-67 511,-47 88,-47"/>
<text text-anchor="start" x="91" y="-52.8" font-family="Times,serif" font-size="14.00" fill="#000000">Has a mechanism to score OKRs.</text>
<polygon fill="none" stroke="#00ff00" points="88,-27 88,-47 511,-47 511,-27 88,-27"/>
<text text-anchor="start" x="91" y="-32.8" font-family="Times,serif" font-size="14.00" fill="#000000">Create Cron Tasks that are tasks that need to happen regularily.</text>
<polygon fill="none" stroke="#00ff00" points="88,-7 88,-27 511,-27 511,-7 88,-7"/>
<text text-anchor="start" x="91" y="-12.8" font-family="Times,serif" font-size="14.00" fill="#000000">Create Standard Operating Procedure Tasks. Merge GitSOP.</text>
</g>
<!-- GitOKR&#45;&gt;GitOKRGitOKR -->
<g id="edge1" class="edge">
<title>GitOKR&#45;&gt;GitOKRGitOKR</title>
<path fill="none" stroke="#000000" d="M749.6888,-175.9891C683.0496,-166.7961 608.2997,-155.2257 531.868,-140.132"/>
<polygon fill="#000000" stroke="#000000" points="532.5436,-136.6979 522.0524,-138.1759 531.1755,-143.5629 532.5436,-136.6979"/>
</g>
<!-- GitOKRGitSOP -->
<g id="node3" class="node">
<title>GitOKRGitSOP</title>
<polygon fill="#ffa500" stroke="transparent" points="548,-116 548,-136 948,-136 948,-116 548,-116"/>
<polygon fill="none" stroke="#000000" points="548,-116 548,-136 948,-136 948,-116 548,-116"/>
<text text-anchor="start" x="702.6914" y="-122.8" font-family="Times,serif" font-weight="bold" font-size="14.00" fill="#000000">Project: GitSOP</text>
<polygon fill="none" stroke="#000000" points="548,-110 548,-116 948,-116 948,-110 548,-110"/>
<polygon fill="none" stroke="#000000" points="548,-90 548,-110 948,-110 948,-90 548,-90"/>
<text text-anchor="start" x="739.4448" y="-95.8" font-family="Times,serif" font-size="14.00" fill="#000000">Q4</text>
<polygon fill="none" stroke="#000000" points="548,-70 548,-90 625,-90 625,-70 548,-70"/>
<text text-anchor="start" x="557.3447" y="-75.8" font-family="Times,serif" font-size="14.00" fill="#000000">Objective:</text>
<polygon fill="none" stroke="#000000" points="625,-70 625,-90 948,-90 948,-70 625,-70"/>
<text text-anchor="start" x="628" y="-75.8" font-family="Times,serif" font-size="14.00" fill="#000000">Create Standard Operating Procedures</text>
<polygon fill="none" stroke="#000000" points="548,-4 548,-70 625,-70 625,-4 548,-4"/>
<text text-anchor="start" x="550.5293" y="-32.8" font-family="Times,serif" font-size="14.00" fill="#000000">Key Results:</text>
<polygon fill="none" stroke="#000000" points="625,-4 625,-70 948,-70 948,-4 625,-4"/>
<polygon fill="none" stroke="#ff0000" points="628,-47 628,-67 945,-67 945,-47 628,-47"/>
<text text-anchor="start" x="631" y="-52.8" font-family="Times,serif" font-size="14.00" fill="#000000">Create examples directory</text>
<polygon fill="none" stroke="#ff0000" points="628,-27 628,-47 945,-47 945,-27 628,-27"/>
<text text-anchor="start" x="630.5347" y="-32.8" font-family="Times,serif" font-size="14.00" fill="#000000">Create a method for launching SOP from a repo locally.</text>
<polygon fill="none" stroke="#ff0000" points="628,-7 628,-27 945,-27 945,-7 628,-7"/>
<text text-anchor="start" x="631" y="-12.8" font-family="Times,serif" font-size="14.00" fill="#000000">Call Github Issues / API / Lambda</text>
</g>
<!-- GitOKR&#45;&gt;GitOKRGitSOP -->
<g id="edge2" class="edge">
<title>GitOKR&#45;&gt;GitOKRGitSOP</title>
<path fill="none" stroke="#000000" d="M911.6645,-175.8527C898.1295,-167.0987 882.0241,-156.6822 865.2791,-145.8521"/>
<polygon fill="#000000" stroke="#000000" points="866.7721,-142.6495 856.4745,-140.1576 862.9705,-148.5273 866.7721,-142.6495"/>
</g>
<!-- GitOKRGitCron -->
<g id="node4" class="node">
<title>GitOKRGitCron</title>
<polygon fill="#ffa500" stroke="transparent" points="983,-116 983,-136 1320,-136 1320,-116 983,-116"/>
<polygon fill="none" stroke="#000000" points="983,-116 983,-136 1320,-136 1320,-116 983,-116"/>
<text text-anchor="start" x="1105.0327" y="-122.8" font-family="Times,serif" font-weight="bold" font-size="14.00" fill="#000000">Project: GitCron</text>
<polygon fill="none" stroke="#000000" points="983,-110 983,-116 1320,-116 1320,-110 983,-110"/>
<polygon fill="none" stroke="#000000" points="983,-90 983,-110 1320,-110 1320,-90 983,-90"/>
<text text-anchor="start" x="1142.9448" y="-95.8" font-family="Times,serif" font-size="14.00" fill="#000000">Q4</text>
<polygon fill="none" stroke="#000000" points="983,-70 983,-90 1060,-90 1060,-70 983,-70"/>
<text text-anchor="start" x="992.3447" y="-75.8" font-family="Times,serif" font-size="14.00" fill="#000000">Objective:</text>
<polygon fill="none" stroke="#000000" points="1060,-70 1060,-90 1320,-90 1320,-70 1060,-70"/>
<text text-anchor="start" x="1063" y="-75.8" font-family="Times,serif" font-size="14.00" fill="#000000">Create Standard Cron Tasks for Repo</text>
<polygon fill="none" stroke="#000000" points="983,-4 983,-70 1060,-70 1060,-4 983,-4"/>
<text text-anchor="start" x="985.5293" y="-32.8" font-family="Times,serif" font-size="14.00" fill="#000000">Key Results:</text>
<polygon fill="none" stroke="#000000" points="1060,-4 1060,-70 1320,-70 1320,-4 1060,-4"/>
<polygon fill="none" stroke="#00ff00" points="1063,-47 1063,-67 1317,-67 1317,-47 1063,-47"/>
<text text-anchor="start" x="1065.8047" y="-52.8" font-family="Times,serif" font-size="14.00" fill="#000000">Execute and Store Cron Task in DynamoDB</text>
<polygon fill="none" stroke="#00ff00" points="1063,-27 1063,-47 1317,-47 1317,-27 1063,-27"/>
<text text-anchor="start" x="1066" y="-32.8" font-family="Times,serif" font-size="14.00" fill="#000000">Create Lambda to Watch and Run Tasks.</text>
<polygon fill="none" stroke="#00ff00" points="1063,-7 1063,-27 1317,-27 1317,-7 1063,-7"/>
<text text-anchor="start" x="1066" y="-12.8" font-family="Times,serif" font-size="14.00" fill="#000000">Call Github Issues / API / Lambda</text>
</g>
<!-- GitOKR&#45;&gt;GitOKRGitCron -->
<g id="edge3" class="edge">
<title>GitOKR&#45;&gt;GitOKRGitCron</title>
<path fill="none" stroke="#000000" d="M986.5212,-175.8527C1000.1236,-167.0987 1016.3091,-156.6822 1033.1374,-145.8521"/>
<polygon fill="#000000" stroke="#000000" points="1035.4709,-148.5126 1041.9859,-140.1576 1031.6826,-142.6262 1035.4709,-148.5126"/>
</g>
<!-- GitOKRGitCanvas -->
<g id="node5" class="node">
<title>GitOKRGitCanvas</title>
<polygon fill="#ffa500" stroke="transparent" points="1354,-96 1354,-116 1710,-116 1710,-96 1354,-96"/>
<polygon fill="none" stroke="#000000" points="1354,-96 1354,-116 1710,-116 1710,-96 1354,-96"/>
<text text-anchor="start" x="1478.9258" y="-102.8" font-family="Times,serif" font-weight="bold" font-size="14.00" fill="#000000">Project: GitCanvas</text>
<polygon fill="none" stroke="#000000" points="1354,-90 1354,-96 1710,-96 1710,-90 1354,-90"/>
<polygon fill="none" stroke="#000000" points="1354,-70 1354,-90 1710,-90 1710,-70 1354,-70"/>
<text text-anchor="start" x="1523.4448" y="-75.8" font-family="Times,serif" font-size="14.00" fill="#000000">Q4</text>
<polygon fill="none" stroke="#000000" points="1354,-50 1354,-70 1431,-70 1431,-50 1354,-50"/>
<text text-anchor="start" x="1363.3447" y="-55.8" font-family="Times,serif" font-size="14.00" fill="#000000">Objective:</text>
<polygon fill="none" stroke="#000000" points="1431,-50 1431,-70 1710,-70 1710,-50 1431,-50"/>
<text text-anchor="start" x="1434" y="-55.8" font-family="Times,serif" font-size="14.00" fill="#000000">Create Lean Canvas from Git</text>
<polygon fill="none" stroke="#000000" points="1354,-24 1354,-50 1431,-50 1431,-24 1354,-24"/>
<text text-anchor="start" x="1356.5293" y="-32.8" font-family="Times,serif" font-size="14.00" fill="#000000">Key Results:</text>
<polygon fill="none" stroke="#000000" points="1431,-24 1431,-50 1710,-50 1710,-24 1431,-24"/>
<polygon fill="none" stroke="#00ff00" points="1434,-27 1434,-47 1707,-47 1707,-27 1434,-27"/>
<text text-anchor="start" x="1436.7549" y="-32.8" font-family="Times,serif" font-size="14.00" fill="#000000">Generate Canvas from yaml and output to html.</text>
</g>
<!-- GitOKR&#45;&gt;GitOKRGitCanvas -->
<g id="edge4" class="edge">
<title>GitOKR&#45;&gt;GitOKRGitCanvas</title>
<path fill="none" stroke="#000000" d="M1152.609,-175.9918C1212.488,-166.925 1277.7946,-155.0568 1337,-140 1355.6384,-135.26 1374.9973,-129.4465 1393.9627,-123.2147"/>
<polygon fill="#000000" stroke="#000000" points="1395.1563,-126.5062 1403.5363,-120.0235 1392.9426,-119.8655 1395.1563,-126.5062"/>
</g>
</g>
</svg>
