<?xml version="1.0" encoding="UTF-8" standalone="no"?>
<!DOCTYPE svg PUBLIC "-//W3C//DTD SVG 1.1//EN"
 "http://www.w3.org/Graphics/SVG/1.1/DTD/svg11.dtd">
<!-- Generated by graphviz version 2.40.1 (20161225.0304)
 -->
<!-- Title: G Pages: 1 -->
<svg width="982pt" height="304pt"
 viewBox="0.00 0.00 981.50 304.00" xmlns="http://www.w3.org/2000/svg" xmlns:xlink="http://www.w3.org/1999/xlink">
<g id="graph0" class="graph" transform="scale(1 1) rotate(0) translate(4 300)">
<title>G</title>
<polygon fill="#ffffff" stroke="transparent" points="-4,4 -4,-300 977.5,-300 977.5,4 -4,4"/>
<!-- GitOKR -->
<g id="node1" class="node">
<title>GitOKR</title>
<polygon fill="#ffa500" stroke="transparent" points="384,-272 384,-292 634,-292 634,-272 384,-272"/>
<polygon fill="none" stroke="#000000" points="384,-272 384,-292 634,-292 634,-272 384,-272"/>
<text text-anchor="start" x="461.7534" y="-278.8" font-family="Times,serif" font-weight="bold" font-size="14.00" fill="#000000">Project: GitOKR</text>
<polygon fill="none" stroke="#000000" points="384,-252 384,-272 634,-272 634,-252 384,-252"/>
<text text-anchor="start" x="386.6982" y="-257.8" font-family="Times,serif" font-size="14.00" fill="#000000">Simple tool to manage OKRs using Github.</text>
</g>
<!-- GitOKRProduct -->
<g id="node2" class="node">
<title>GitOKRProduct</title>
<polygon fill="#ffa500" stroke="transparent" points="8,-188 8,-208 514,-208 514,-188 8,-188"/>
<polygon fill="none" stroke="#000000" points="8,-188 8,-208 514,-208 514,-188 8,-188"/>
<text text-anchor="start" x="215.7017" y="-194.8" font-family="Times,serif" font-weight="bold" font-size="14.00" fill="#000000">Project: Product</text>
<polygon fill="none" stroke="#000000" points="8,-182 8,-188 514,-188 514,-182 8,-182"/>
<polygon fill="none" stroke="#000000" points="8,-162 8,-182 514,-182 514,-162 8,-162"/>
<text text-anchor="start" x="252.4448" y="-167.8" font-family="Times,serif" font-size="14.00" fill="#000000">Q4</text>
<polygon fill="none" stroke="#000000" points="8,-142 8,-162 85,-162 85,-142 8,-142"/>
<text text-anchor="start" x="17.3447" y="-147.8" font-family="Times,serif" font-size="14.00" fill="#000000">Objective:</text>
<polygon fill="none" stroke="#000000" points="85,-142 85,-162 514,-162 514,-142 85,-142"/>
<text text-anchor="start" x="87.8149" y="-147.8" font-family="Times,serif" font-size="14.00" fill="#000000">Make it simple to use and have certain critical things that are part of OKRs.</text>
<polygon fill="none" stroke="#000000" points="8,-76 8,-142 85,-142 85,-76 8,-76"/>
<text text-anchor="start" x="10.5293" y="-104.8" font-family="Times,serif" font-size="14.00" fill="#000000">Key Results:</text>
<polygon fill="none" stroke="#000000" points="85,-76 85,-142 514,-142 514,-76 85,-76"/>
<polygon fill="none" stroke="#ff0000" points="88,-119 88,-139 511,-139 511,-119 88,-119"/>
<text text-anchor="start" x="91" y="-124.8" font-family="Times,serif" font-size="14.00" fill="#000000">Has a mechanism to score OKRs.</text>
<polygon fill="none" stroke="#00ff00" points="88,-99 88,-119 511,-119 511,-99 88,-99"/>
<text text-anchor="start" x="91" y="-104.8" font-family="Times,serif" font-size="14.00" fill="#000000">Create Cron Tasks that are tasks that need to happen regularily.</text>
<polygon fill="none" stroke="#00ff00" points="88,-79 88,-99 511,-99 511,-79 88,-79"/>
<text text-anchor="start" x="91" y="-84.8" font-family="Times,serif" font-size="14.00" fill="#000000">Create Standard Operating Procedure Tasks. Merge GitSOP.</text>
</g>
<!-- GitOKR&#45;&gt;GitOKRProduct -->
<g id="edge1" class="edge">
<title>GitOKR&#45;&gt;GitOKRProduct</title>
<path fill="none" stroke="#000000" d="M462.9343,-247.8527C445.6366,-238.7853 424.9363,-227.9344 403.4809,-216.6876"/>
<polygon fill="#000000" stroke="#000000" points="405.0585,-213.5629 394.5766,-212.02 401.8086,-219.7627 405.0585,-213.5629"/>
</g>
<!-- GitOKRMarketing -->
<g id="node3" class="node">
<title>GitOKRMarketing</title>
<polygon fill="#ffa500" stroke="transparent" points="549,-188 549,-208 966,-208 966,-188 549,-188"/>
<polygon fill="none" stroke="#000000" points="549,-188 549,-208 966,-208 966,-188 549,-188"/>
<text text-anchor="start" x="704.8188" y="-194.8" font-family="Times,serif" font-weight="bold" font-size="14.00" fill="#000000">Project: Marketing</text>
<polygon fill="none" stroke="#000000" points="549,-182 549,-188 966,-188 966,-182 549,-182"/>
<polygon fill="none" stroke="#000000" points="549,-162 549,-182 966,-182 966,-162 549,-162"/>
<text text-anchor="start" x="748.9448" y="-167.8" font-family="Times,serif" font-size="14.00" fill="#000000">Q4</text>
<polygon fill="none" stroke="#000000" points="549,-142 549,-162 626,-162 626,-142 549,-142"/>
<text text-anchor="start" x="558.3447" y="-147.8" font-family="Times,serif" font-size="14.00" fill="#000000">Objective:</text>
<polygon fill="none" stroke="#000000" points="626,-142 626,-162 966,-162 966,-142 626,-142"/>
<text text-anchor="start" x="628.8237" y="-147.8" font-family="Times,serif" font-size="14.00" fill="#000000">Get people to use it and expand on the use cases of the tool.</text>
<polygon fill="none" stroke="#000000" points="549,-76 549,-142 626,-142 626,-76 549,-76"/>
<text text-anchor="start" x="551.5293" y="-104.8" font-family="Times,serif" font-size="14.00" fill="#000000">Key Results:</text>
<polygon fill="none" stroke="#000000" points="626,-76 626,-142 966,-142 966,-76 626,-76"/>
<polygon fill="none" stroke="#ff0000" points="629,-119 629,-139 963,-139 963,-119 629,-119"/>
<text text-anchor="start" x="632" y="-124.8" font-family="Times,serif" font-size="14.00" fill="#000000">Create examples directory</text>
<polygon fill="none" stroke="#ff0000" points="629,-99 629,-119 963,-119 963,-99 629,-99"/>
<text text-anchor="start" x="632" y="-104.8" font-family="Times,serif" font-size="14.00" fill="#000000">Get 100 Stars</text>
<polygon fill="none" stroke="#ff0000" points="629,-79 629,-99 963,-99 963,-79 629,-79"/>
<text text-anchor="start" x="632" y="-84.8" font-family="Times,serif" font-size="14.00" fill="#000000">Post it on 20 Sites</text>
</g>
<!-- GitOKR&#45;&gt;GitOKRMarketing -->
<g id="edge2" class="edge">
<title>GitOKR&#45;&gt;GitOKRMarketing</title>
<path fill="none" stroke="#000000" d="M555.0657,-247.8527C572.3634,-238.7853 593.0637,-227.9344 614.5191,-216.6876"/>
<polygon fill="#000000" stroke="#000000" points="616.1914,-219.7627 623.4234,-212.02 612.9415,-213.5629 616.1914,-219.7627"/>
</g>
<!-- GitOKRMarketingNewIssue -->
<g id="node4" class="node">
<title>GitOKRMarketingNewIssue</title>
<g id="a_node4"><a xlink:href="https://github.com/abhiyerra/gitokr/issues/new?body=%23+Issue%3A+NAME%0A%0A%23%23+What+does+it+do%3F&amp;title=New+Issue" xlink:title="SOP: New Issue">
<ellipse fill="none" stroke="#0000ff" cx="757" cy="-18" rx="68.1633" ry="18"/>
<text text-anchor="middle" x="757" y="-13.8" font-family="Times,serif" font-size="14.00" fill="#000000">SOP: New Issue</text>
</a>
</g>
</g>
<!-- GitOKRMarketing&#45;&gt;GitOKRMarketingNewIssue -->
<g id="edge3" class="edge">
<title>GitOKRMarketing&#45;&gt;GitOKRMarketingNewIssue</title>
<path fill="none" stroke="#000000" stroke-dasharray="1,5" d="M757,-61.6627C757,-56.3617 757,-51.2572 757,-46.5245"/>
<polygon fill="#000000" stroke="#000000" points="753.5001,-61.667 757,-71.667 760.5001,-61.667 753.5001,-61.667"/>
<polygon fill="#000000" stroke="#000000" points="760.5001,-46.2383 757,-36.2383 753.5001,-46.2384 760.5001,-46.2383"/>
</g>
</g>
</svg>
