<?xml version="1.0" encoding="UTF-8" standalone="no"?>
<!DOCTYPE svg PUBLIC "-//W3C//DTD SVG 1.1//EN"
 "http://www.w3.org/Graphics/SVG/1.1/DTD/svg11.dtd">
<!-- Generated by graphviz version 2.40.1 (20161225.0304)
 -->
<!-- Title: G Pages: 1 -->
<svg width="1336pt" height="232pt"
 viewBox="0.00 0.00 1335.50 232.00" xmlns="http://www.w3.org/2000/svg" xmlns:xlink="http://www.w3.org/1999/xlink">
<g id="graph0" class="graph" transform="scale(1 1) rotate(0) translate(4 228)">
<title>G</title>
<polygon fill="#ffffff" stroke="transparent" points="-4,4 -4,-228 1331.5,-228 1331.5,4 -4,4"/>
<!-- GitOKR -->
<g id="node1" class="node">
<title>GitOKR</title>
<polygon fill="#ffa500" stroke="transparent" points="623,-200 623,-220 873,-220 873,-200 623,-200"/>
<polygon fill="none" stroke="#000000" points="623,-200 623,-220 873,-220 873,-200 623,-200"/>
<text text-anchor="start" x="700.7534" y="-206.8" font-family="Times,serif" font-weight="bold" font-size="14.00" fill="#000000">Project: GitOKR</text>
<polygon fill="none" stroke="#000000" points="623,-180 623,-200 873,-200 873,-180 623,-180"/>
<text text-anchor="start" x="625.6982" y="-185.8" font-family="Times,serif" font-size="14.00" fill="#000000">Simple tool to manage OKRs using Github.</text>
</g>
<!-- GitOKRGitOKR -->
<g id="node2" class="node">
<title>GitOKRGitOKR</title>
<polygon fill="#ffa500" stroke="transparent" points="8,-116 8,-136 514,-136 514,-116 8,-116"/>
<polygon fill="none" stroke="#000000" points="8,-116 8,-136 514,-136 514,-116 8,-116"/>
<text text-anchor="start" x="213.7534" y="-122.8" font-family="Times,serif" font-weight="bold" font-size="14.00" fill="#000000">Project: GitOKR</text>
<polygon fill="none" stroke="#000000" points="8,-110 8,-116 514,-116 514,-110 8,-110"/>
<polygon fill="none" stroke="#000000" points="8,-90 8,-110 514,-110 514,-90 8,-90"/>
<text text-anchor="start" x="252.4448" y="-95.8" font-family="Times,serif" font-size="14.00" fill="#000000">Q4</text>
<polygon fill="none" stroke="#000000" points="8,-70 8,-90 85,-90 85,-70 8,-70"/>
<text text-anchor="start" x="17.3447" y="-75.8" font-family="Times,serif" font-size="14.00" fill="#000000">Objective:</text>
<polygon fill="none" stroke="#000000" points="85,-70 85,-90 514,-90 514,-70 85,-70"/>
<text text-anchor="start" x="87.8149" y="-75.8" font-family="Times,serif" font-size="14.00" fill="#000000">Make it simple to use and have certain critical things that are part of OKRs.</text>
<polygon fill="none" stroke="#000000" points="8,-4 8,-70 85,-70 85,-4 8,-4"/>
<text text-anchor="start" x="10.5293" y="-32.8" font-family="Times,serif" font-size="14.00" fill="#000000">Key Results:</text>
<polygon fill="none" stroke="#000000" points="85,-4 85,-70 514,-70 514,-4 85,-4"/>
<polygon fill="none" stroke="#00ff00" points="88,-47 88,-67 511,-67 511,-47 88,-47"/>
<text text-anchor="start" x="91" y="-52.8" font-family="Times,serif" font-size="14.00" fill="#000000">Has a mechanism to score OKRs.</text>
<polygon fill="none" stroke="#00ff00" points="88,-27 88,-47 511,-47 511,-27 88,-27"/>
<text text-anchor="start" x="91" y="-32.8" font-family="Times,serif" font-size="14.00" fill="#000000">Create Cron Tasks that are tasks that need to happen regularily.</text>
<polygon fill="none" stroke="#00ff00" points="88,-7 88,-27 511,-27 511,-7 88,-7"/>
<text text-anchor="start" x="91" y="-12.8" font-family="Times,serif" font-size="14.00" fill="#000000">Create Standard Operating Procedure Tasks. Merge GitSOP.</text>
</g>
<!-- GitOKR&#45;&gt;GitOKRGitOKR -->
<g id="edge1" class="edge">
<title>GitOKR&#45;&gt;GitOKRGitOKR</title>
<path fill="none" stroke="#000000" d="M657.8249,-175.9286C621.3741,-166.1984 577.1952,-154.4053 531.734,-142.2698"/>
<polygon fill="#000000" stroke="#000000" points="532.5803,-138.8733 522.0159,-139.6757 530.7749,-145.6365 532.5803,-138.8733"/>
</g>
<!-- GitOKRGitSOP -->
<g id="node3" class="node">
<title>GitOKRGitSOP</title>
<polygon fill="#ffa500" stroke="transparent" points="548,-116 548,-136 948,-136 948,-116 548,-116"/>
<polygon fill="none" stroke="#000000" points="548,-116 548,-136 948,-136 948,-116 548,-116"/>
<text text-anchor="start" x="702.6914" y="-122.8" font-family="Times,serif" font-weight="bold" font-size="14.00" fill="#000000">Project: GitSOP</text>
<polygon fill="none" stroke="#000000" points="548,-110 548,-116 948,-116 948,-110 548,-110"/>
<polygon fill="none" stroke="#000000" points="548,-90 548,-110 948,-110 948,-90 548,-90"/>
<text text-anchor="start" x="739.4448" y="-95.8" font-family="Times,serif" font-size="14.00" fill="#000000">Q4</text>
<polygon fill="none" stroke="#000000" points="548,-70 548,-90 625,-90 625,-70 548,-70"/>
<text text-anchor="start" x="557.3447" y="-75.8" font-family="Times,serif" font-size="14.00" fill="#000000">Objective:</text>
<polygon fill="none" stroke="#000000" points="625,-70 625,-90 948,-90 948,-70 625,-70"/>
<text text-anchor="start" x="628" y="-75.8" font-family="Times,serif" font-size="14.00" fill="#000000">Create Standard Operating Procedures</text>
<polygon fill="none" stroke="#000000" points="548,-4 548,-70 625,-70 625,-4 548,-4"/>
<text text-anchor="start" x="550.5293" y="-32.8" font-family="Times,serif" font-size="14.00" fill="#000000">Key Results:</text>
<polygon fill="none" stroke="#000000" points="625,-4 625,-70 948,-70 948,-4 625,-4"/>
<polygon fill="none" stroke="#ff0000" points="628,-47 628,-67 945,-67 945,-47 628,-47"/>
<text text-anchor="start" x="631" y="-52.8" font-family="Times,serif" font-size="14.00" fill="#000000">Create examples directory</text>
<polygon fill="none" stroke="#ff0000" points="628,-27 628,-47 945,-47 945,-27 628,-27"/>
<text text-anchor="start" x="630.5347" y="-32.8" font-family="Times,serif" font-size="14.00" fill="#000000">Create a method for launching SOP from a repo locally.</text>
<polygon fill="none" stroke="#ff0000" points="628,-7 628,-27 945,-27 945,-7 628,-7"/>
<text text-anchor="start" x="631" y="-12.8" font-family="Times,serif" font-size="14.00" fill="#000000">Call Github Issues / API / Lambda</text>
</g>
<!-- GitOKR&#45;&gt;GitOKRGitSOP -->
<g id="edge2" class="edge">
<title>GitOKR&#45;&gt;GitOKRGitSOP</title>
<path fill="none" stroke="#000000" d="M748,-175.8527C748,-168.3034 748,-159.5177 748,-150.2965"/>
<polygon fill="#000000" stroke="#000000" points="751.5001,-150.1576 748,-140.1576 744.5001,-150.1576 751.5001,-150.1576"/>
</g>
<!-- GitOKRGitCron -->
<g id="node4" class="node">
<title>GitOKRGitCron</title>
<polygon fill="#ffa500" stroke="transparent" points="983,-116 983,-136 1320,-136 1320,-116 983,-116"/>
<polygon fill="none" stroke="#000000" points="983,-116 983,-136 1320,-136 1320,-116 983,-116"/>
<text text-anchor="start" x="1105.0327" y="-122.8" font-family="Times,serif" font-weight="bold" font-size="14.00" fill="#000000">Project: GitCron</text>
<polygon fill="none" stroke="#000000" points="983,-110 983,-116 1320,-116 1320,-110 983,-110"/>
<polygon fill="none" stroke="#000000" points="983,-90 983,-110 1320,-110 1320,-90 983,-90"/>
<text text-anchor="start" x="1142.9448" y="-95.8" font-family="Times,serif" font-size="14.00" fill="#000000">Q4</text>
<polygon fill="none" stroke="#000000" points="983,-70 983,-90 1060,-90 1060,-70 983,-70"/>
<text text-anchor="start" x="992.3447" y="-75.8" font-family="Times,serif" font-size="14.00" fill="#000000">Objective:</text>
<polygon fill="none" stroke="#000000" points="1060,-70 1060,-90 1320,-90 1320,-70 1060,-70"/>
<text text-anchor="start" x="1063" y="-75.8" font-family="Times,serif" font-size="14.00" fill="#000000">Create Standard Cron Tasks for Repo</text>
<polygon fill="none" stroke="#000000" points="983,-4 983,-70 1060,-70 1060,-4 983,-4"/>
<text text-anchor="start" x="985.5293" y="-32.8" font-family="Times,serif" font-size="14.00" fill="#000000">Key Results:</text>
<polygon fill="none" stroke="#000000" points="1060,-4 1060,-70 1320,-70 1320,-4 1060,-4"/>
<polygon fill="none" stroke="#ff0000" points="1063,-47 1063,-67 1317,-67 1317,-47 1063,-47"/>
<text text-anchor="start" x="1065.8047" y="-52.8" font-family="Times,serif" font-size="14.00" fill="#000000">Execute and Store Cron Task in DynamoDB</text>
<polygon fill="none" stroke="#ff0000" points="1063,-27 1063,-47 1317,-47 1317,-27 1063,-27"/>
<text text-anchor="start" x="1066" y="-32.8" font-family="Times,serif" font-size="14.00" fill="#000000">Create Lambda to Watch and Run Tasks.</text>
<polygon fill="none" stroke="#ff0000" points="1063,-7 1063,-27 1317,-27 1317,-7 1063,-7"/>
<text text-anchor="start" x="1066" y="-12.8" font-family="Times,serif" font-size="14.00" fill="#000000">Call Github Issues / API / Lambda</text>
</g>
<!-- GitOKR&#45;&gt;GitOKRGitCron -->
<g id="edge3" class="edge">
<title>GitOKR&#45;&gt;GitOKRGitCron</title>
<path fill="none" stroke="#000000" d="M842.011,-175.9901C877.8354,-166.3612 919.1427,-154.6838 964.6453,-140.0602"/>
<polygon fill="#000000" stroke="#000000" points="965.9834,-143.3059 974.4183,-136.8946 963.8263,-136.6465 965.9834,-143.3059"/>
</g>
</g>
</svg>
