<?xml version="1.0" encoding="UTF-8" standalone="no"?>
<!DOCTYPE svg PUBLIC "-//W3C//DTD SVG 1.1//EN"
 "http://www.w3.org/Graphics/SVG/1.1/DTD/svg11.dtd">
<!-- Generated by graphviz version 2.40.1 (20161225.0304)
 -->
<!-- Title: G Pages: 1 -->
<svg width="192pt" height="128pt"
 viewBox="0.00 0.00 192.00 128.00" xmlns="http://www.w3.org/2000/svg" xmlns:xlink="http://www.w3.org/1999/xlink">
<g id="graph0" class="graph" transform="scale(1 1) rotate(0) translate(4 124)">
<title>G</title>
<polygon fill="#ffffff" stroke="transparent" points="-4,4 -4,-124 188,-124 188,4 -4,4"/>
<!-- f241e0f1f30c450ab5ec7d8a473c070b -->
<g id="node1" class="node">
<title>f241e0f1f30c450ab5ec7d8a473c070b</title>
<polygon fill="#ffa500" stroke="transparent" points="8,-96 8,-116 176,-116 176,-96 8,-96"/>
<polygon fill="none" stroke="#000000" points="8,-96 8,-116 176,-116 176,-96 8,-96"/>
<text text-anchor="start" x="62.8413" y="-102.8" font-family="Times,serif" font-weight="bold" font-size="14.00" fill="#000000">Marketing</text>
<polygon fill="none" stroke="#000000" points="8,-76 8,-96 176,-96 176,-76 8,-76"/>
<text text-anchor="start" x="10.5464" y="-81.8" font-family="Times,serif" font-size="14.00" fill="#000000">Setup Marketing for opsZero</text>
</g>
<!-- d80816cc36434ab793a224dc556cc39e -->
<g id="node2" class="node">
<title>d80816cc36434ab793a224dc556cc39e</title>
<polygon fill="#ffa500" stroke="transparent" points="66,-11 66,-31 118,-31 118,-11 66,-11"/>
<polygon fill="none" stroke="#000000" points="66,-11 66,-31 118,-31 118,-11 66,-11"/>
<text text-anchor="start" x="68.6655" y="-17.8" font-family="Times,serif" font-weight="bold" font-size="14.00" fill="#000000">Pitching</text>
<polygon fill="none" stroke="#000000" points="66,-5 66,-11 118,-11 118,-5 66,-5"/>
</g>
<!-- f241e0f1f30c450ab5ec7d8a473c070b&#45;&gt;d80816cc36434ab793a224dc556cc39e -->
<g id="edge1" class="edge">
<title>f241e0f1f30c450ab5ec7d8a473c070b&#45;&gt;d80816cc36434ab793a224dc556cc39e</title>
<path fill="none" stroke="#000000" d="M92,-71.7479C92,-63.6981 92,-54.6653 92,-46.3356"/>
<polygon fill="#000000" stroke="#000000" points="95.5001,-46.2875 92,-36.2875 88.5001,-46.2876 95.5001,-46.2875"/>
</g>
</g>
</svg>
